<?xml version="1.0" encoding="UTF-8"?>
<svg id="Layer_1" xmlns="http://www.w3.org/2000/svg" version="1.1" viewBox="0 0 226.32 248.8">
  <!-- Generator: Adobe Illustrator 30.2.1, SVG Export Plug-In . SVG Version: 2.1.1 Build 1)  -->
  <defs>
    <style>
      .st0 {
        fill: #f18720;
      }

      .st1 {
        fill: #fff;
      }

      .st2 {
        fill: #ed4523;
      }
    </style>
  </defs>
  <g>
    <path class="st0" d="M216.16,103.34L112.82,0,5.52,107.3l107.3,107.3,103.34-103.34c2.19-2.19,2.19-5.74,0-7.94Z"/>
    <g>
      <circle class="st2" cx="125.79" cy="159.73" r="4.47"/>
      <path class="st2" d="M125.79,156.44c1.81,0,3.28,1.47,3.28,3.28s-1.47,3.28-3.28,3.28-3.28-1.47-3.28-3.28,1.47-3.28,3.28-3.28M125.79,155.26c-2.47,0-4.47,2-4.47,4.47s2,4.47,4.47,4.47,4.47-2,4.47-4.47-2-4.47-4.47-4.47h0Z"/>
    </g>
    <g>
      <circle class="st2" cx="125.79" cy="169.73" r="4.47"/>
      <path class="st2" d="M125.79,166.45c1.81,0,3.28,1.47,3.28,3.28s-1.47,3.28-3.28,3.28-3.28-1.47-3.28-3.28,1.47-3.28,3.28-3.28M125.79,165.26c-2.47,0-4.47,2-4.47,4.47s2,4.47,4.47,4.47,4.47-2,4.47-4.47-2-4.47-4.47-4.47h0Z"/>
    </g>
    <g>
      <circle class="st2" cx="136.06" cy="159.73" r="4.47"/>
      <path class="st2" d="M136.06,156.44c1.81,0,3.28,1.47,3.28,3.28s-1.47,3.28-3.28,3.28-3.28-1.47-3.28-3.28,1.47-3.28,3.28-3.28M136.06,155.26c-2.47,0-4.47,2-4.47,4.47s2,4.47,4.47,4.47,4.47-2,4.47-4.47-2-4.47-4.47-4.47h0Z"/>
    </g>
    <g>
      <circle class="st2" cx="136.06" cy="169.73" r="4.47"/>
      <path class="st2" d="M136.06,166.45c1.81,0,3.28,1.47,3.28,3.28s-1.47,3.28-3.28,3.28-3.28-1.47-3.28-3.28,1.47-3.28,3.28-3.28M136.06,165.26c-2.47,0-4.47,2-4.47,4.47s2,4.47,4.47,4.47,4.47-2,4.47-4.47-2-4.47-4.47-4.47h0Z"/>
    </g>
    <g>
      <circle class="st2" cx="112.67" cy="179.6" r="4.47"/>
      <path class="st2" d="M112.67,176.32c1.81,0,3.28,1.47,3.28,3.28s-1.47,3.28-3.28,3.28-3.28-1.47-3.28-3.28,1.47-3.28,3.28-3.28M112.67,175.13c-2.47,0-4.47,2-4.47,4.47s2,4.47,4.47,4.47,4.47-2,4.47-4.47-2-4.47-4.47-4.47h0Z"/>
    </g>
    <g>
      <circle class="st2" cx="112.67" cy="189.61" r="4.47"/>
      <path class="st2" d="M112.67,186.33c1.81,0,3.28,1.47,3.28,3.28s-1.47,3.28-3.28,3.28-3.28-1.47-3.28-3.28,1.47-3.28,3.28-3.28M112.67,185.14c-2.47,0-4.47,2-4.47,4.47s2,4.47,4.47,4.47,4.47-2,4.47-4.47-2-4.47-4.47-4.47h0Z"/>
    </g>
    <g>
      <circle class="st2" cx="112.67" cy="159.19" r="4.47"/>
      <path class="st2" d="M112.67,155.91c1.81,0,3.28,1.47,3.28,3.28s-1.47,3.28-3.28,3.28-3.28-1.47-3.28-3.28,1.47-3.28,3.28-3.28M112.67,154.72c-2.47,0-4.47,2-4.47,4.47s2,4.47,4.47,4.47,4.47-2,4.47-4.47-2-4.47-4.47-4.47h0Z"/>
    </g>
    <g>
      <circle class="st2" cx="112.67" cy="169.2" r="4.47"/>
      <path class="st2" d="M112.67,165.92c1.81,0,3.28,1.47,3.28,3.28s-1.47,3.28-3.28,3.28-3.28-1.47-3.28-3.28,1.47-3.28,3.28-3.28M112.67,164.73c-2.47,0-4.47,2-4.47,4.47s2,4.47,4.47,4.47,4.47-2,4.47-4.47-2-4.47-4.47-4.47h0Z"/>
    </g>
    <g>
      <circle class="st2" cx="100.12" cy="42.74" r="4.47"/>
      <path class="st2" d="M100.12,39.46c1.81,0,3.28,1.47,3.28,3.28s-1.47,3.28-3.28,3.28-3.28-1.47-3.28-3.28,1.47-3.28,3.28-3.28M100.12,38.27c-2.47,0-4.47,2-4.47,4.47s2,4.47,4.47,4.47,4.47-2,4.47-4.47-2-4.47-4.47-4.47h0Z"/>
    </g>
    <g>
      <circle class="st2" cx="100.12" cy="52.74" r="4.47"/>
      <path class="st2" d="M100.12,49.46c1.81,0,3.28,1.47,3.28,3.28s-1.47,3.28-3.28,3.28-3.28-1.47-3.28-3.28,1.47-3.28,3.28-3.28M100.12,48.27c-2.47,0-4.47,2-4.47,4.47s2,4.47,4.47,4.47,4.47-2,4.47-4.47-2-4.47-4.47-4.47h0Z"/>
    </g>
    <g>
      <circle class="st2" cx="89.86" cy="42.74" r="4.47"/>
      <path class="st2" d="M89.86,39.46c1.81,0,3.28,1.47,3.28,3.28s-1.47,3.28-3.28,3.28-3.28-1.47-3.28-3.28,1.47-3.28,3.28-3.28M89.86,38.27c-2.47,0-4.47,2-4.47,4.47s2,4.47,4.47,4.47,4.47-2,4.47-4.47-2-4.47-4.47-4.47h0Z"/>
    </g>
    <g>
      <circle class="st2" cx="89.86" cy="52.74" r="4.47"/>
      <path class="st2" d="M89.86,49.46c1.81,0,3.28,1.47,3.28,3.28s-1.47,3.28-3.28,3.28-3.28-1.47-3.28-3.28,1.47-3.28,3.28-3.28M89.86,48.27c-2.47,0-4.47,2-4.47,4.47s2,4.47,4.47,4.47,4.47-2,4.47-4.47-2-4.47-4.47-4.47h0Z"/>
    </g>
    <g>
      <circle class="st2" cx="113.24" cy="43.42" r="4.47"/>
      <path class="st2" d="M113.24,40.14c1.81,0,3.28,1.47,3.28,3.28s-1.47,3.28-3.28,3.28-3.28-1.47-3.28-3.28,1.47-3.28,3.28-3.28M113.24,38.95c-2.47,0-4.47,2-4.47,4.47s2,4.47,4.47,4.47,4.47-2,4.47-4.47-2-4.47-4.47-4.47h0Z"/>
    </g>
    <g>
      <circle class="st2" cx="113.24" cy="53.42" r="4.47"/>
      <path class="st2" d="M113.24,50.14c1.81,0,3.28,1.47,3.28,3.28s-1.47,3.28-3.28,3.28-3.28-1.47-3.28-3.28,1.47-3.28,3.28-3.28M113.24,48.95c-2.47,0-4.47,2-4.47,4.47s2,4.47,4.47,4.47,4.47-2,4.47-4.47-2-4.47-4.47-4.47h0Z"/>
    </g>
    <g>
      <circle class="st2" cx="113.24" cy="23.01" r="4.47"/>
      <path class="st2" d="M113.24,19.73c1.81,0,3.28,1.47,3.28,3.28s-1.47,3.28-3.28,3.28-3.28-1.47-3.28-3.28,1.47-3.28,3.28-3.28M113.24,18.54c-2.47,0-4.47,2-4.47,4.47s2,4.47,4.47,4.47,4.47-2,4.47-4.47-2-4.47-4.47-4.47h0Z"/>
    </g>
    <g>
      <circle class="st2" cx="113.24" cy="33.01" r="4.47"/>
      <path class="st2" d="M113.24,29.73c1.81,0,3.28,1.47,3.28,3.28s-1.47,3.28-3.28,3.28-3.28-1.47-3.28-3.28,1.47-3.28,3.28-3.28M113.24,28.54c-2.47,0-4.47,2-4.47,4.47s2,4.47,4.47,4.47,4.47-2,4.47-4.47-2-4.47-4.47-4.47h0Z"/>
    </g>
    <g>
      <rect class="st1" x="187.67" y="145.56" width="8.43" height="8.43" transform="translate(-49.71 179.56) rotate(-45)"/>
      <path d="M191.89,157.05l-7.27-7.27,7.27-7.27,7.27,7.27-7.27,7.27ZM187.23,149.78l4.66,4.66,4.66-4.66-4.66-4.66-4.66,4.66Z"/>
    </g>
    <g>
      <g>
        <path class="st1" d="M224.31,130.92l-2.12-23.25c-5.87.08-5.97.72-6.2-2.2l-.49-7.82-47-7.21-1.74,18.68,43.85,4.24-50.32,4.62h0v-58.55l-18.81,5.11,1.34,52.28.06.87.34,18.47v.23s0,.28,0,.28l81.09-5.75Z"/>
        <path d="M160.29,59.43v58.54h0s50.32-4.61,50.32-4.61l-43.85-4.24,1.74-18.68,47,7.21.49,7.82c.15,1.95.25,2.31,2.06,2.31.89,0,2.2-.09,4.14-.12l2.12,23.25-81.09,5.75v-.28s0-.23,0-.23l-.34-18.47-.06-.87-1.34-52.28,18.81-5.11M162.14,57.01l-2.33.63-18.81,5.11-1.4.38.04,1.45,1.34,52.28v.04s0,.04,0,.04l.06.83.34,18.4v.21s0,.31,0,.31v1.97s1.98-.14,1.98-.14l81.09-5.75,1.88-.13-.17-1.88-2.12-23.25-.15-1.7-1.71.02c-1.07.01-1.95.05-2.66.07-.6.02-1.08.04-1.45.04-.06,0-.11,0-.16,0-.02-.21-.04-.44-.05-.59l-.49-7.81-.09-1.48-1.47-.23-47-7.21-1.94-.3-.18,1.95-1.74,18.68-.17,1.83,1.83.18,24.33,2.35-28.78,2.64v-58.94h0Z"/>
      </g>
      <g>
        <polygon class="st1" points="143.11 95.83 96.18 101.29 135.39 86.73 136.01 86.61 133.13 70.71 111.99 79.76 112 79.72 95.31 87.68 82.96 93.7 85.27 104.79 86.97 114.52 129.91 113.88 132.65 113.76 80.96 118.51 80.96 118.5 80.96 59.95 62.15 65.06 63.32 115.16 63.4 122.52 63.89 136.68 63.89 136.88 63.9 137.18 146.35 131.2 144.59 113.4 143.11 95.83"/>
        <path d="M80.96,59.95v58.54h0s51.69-4.73,51.69-4.73l-2.74.12-42.94.64-1.7-9.73-2.31-11.09,12.35-6.02,16.69-7.96-.02.04,21.14-9.05,2.88,15.9-.62.12-39.21,14.55,46.93-5.46,1.48,17.57,1.76,17.8-82.45,5.98v-.3s0-.2,0-.2l-.49-14.16-.09-7.36-1.17-50.1,18.81-5.11M82.8,57.54l-2.33.63-18.81,5.11-1.4.38.03,1.45,1.17,50.1.09,7.34v.02s0,.02,0,.02l.49,14.16v.18s0,.29,0,.29l.03,1.95,1.94-.14,82.45-5.98,1.89-.14-.19-1.89-1.76-17.8-1.47-17.55-.16-1.9-1.89.22-31.7,3.69,24.69-9.17.48-.1,1.78-.36-.32-1.78-2.88-15.9-.41-2.28-2.13.91-17.13,7.34.11-.28-4.17,1.99-16.69,7.96-11.72,5.71v-34.18h0ZM82.8,116.48v-14.49l.65,3.14,1.7,9.7.25,1.4-2.6.24h0Z"/>
      </g>
      <g>
        <polygon class="st1" points="10.95 79.27 6.95 94.25 1.85 94.25 1.85 117.34 1.85 117.45 24.93 123.46 24.93 132.29 5.8 137.67 10.07 152.87 41.19 144.12 41.19 144.12 41.69 143.98 41.69 94.25 41.91 87.99 10.95 79.27"/>
        <path d="M10.95,79.27l30.96,8.72-.21,6.26v49.73l-.51.14h0s-31.12,8.75-31.12,8.75l-4.27-15.2,19.14-5.38v-8.83l-23.09-6.01v-23.2h5.11l4-14.98M9.65,76.98l-.48,1.81-3.63,13.61H0v26.47l1.38.36,21.71,5.65v6l-17.79,5-1.78.5.5,1.78,4.27,15.2.5,1.78,1.78-.5,31.12-8.75.07-.02.42-.11,1.36-.37v-51.11l.21-6.23.05-1.45-1.39-.39-30.96-8.72-1.8-.51h0Z"/>
      </g>
      <g>
        <polygon class="st1" points="47.52 96.6 47.52 131.98 25.66 138.13 30.46 155.18 47.52 150.38 47.52 150.43 66.33 145.32 66.33 91.49 47.52 96.6"/>
        <path d="M66.33,91.49v53.84l-18.81,5.11v-.05l-17.06,4.8-4.8-17.05,21.86-6.15v-35.38l18.81-5.11M68.17,89.07l-2.33.63-18.81,5.11-1.36.37v35.4l-20.51,5.77-1.78.5.5,1.78,4.8,17.05.5,1.78,1.78-.5,14.71-4.14v.03l2.33-.63,18.81-5.11,1.36-.37v-57.66h0Z"/>
      </g>
      <g>
        <polygon class="st1" points="18.21 97.55 25.31 99.54 25.31 111.38 18.21 109.38 18.21 97.55"/>
        <path d="M18.21,97.55l7.1,1.99v11.83l-7.1-1.99v-11.83M16.36,95.11v15.67l1.35.38,7.1,1.99,2.35.66v-15.67l-1.35-.38-7.1-1.99-2.35-.66h0Z"/>
      </g>
    </g>
    <path d="M48.73,126c.69,2.5.91,5.06,1.01,7.63-1.44.31-2.88.6-4.34.81-1.3.2-2.59.36-3.91.41.61-.26,1.22-.49,1.84-.7,1.85-.64,3.74-1.16,5.64-1.61l-.48.63c-.14-2.4-.17-4.78.23-7.17h0Z"/>
    <path d="M3.1,104.01c-.41-2.76-.36-5.52-.18-8.28,1.01-.19,2.04-.34,3.07-.29,1.88-.02-.03.57-.7.9-.55.21-1.11.37-1.67.51l.48-.57c-.12,2.6-.35,5.19-1.01,7.73h0Z"/>
    <path d="M73.32,63.61c2.09-1.08,4.35-1.66,6.63-2.12v.73c.08,4.52.05,9.04-.3,13.55-.55-4.49-.77-9.01-.9-13.52l.74.58c-2.03.48-4.06.84-6.17.79h0Z"/>
    <path d="M86.59,100.63c-1.12-1.72-1.78-3.63-2.32-5.58,0,0,.44-.22.44-.22,3.55-1.82,7.15-3.57,10.88-5.01-3.31,2.24-6.8,4.2-10.32,6.08l.3-.71c.56,1.77,1,3.56,1.02,5.44h0Z"/>
    <path d="M149.95,63.42c3.03-1.02,6.17-1.68,9.32-2.26.1,3.37.08,6.73-.43,10.07-.58-3.09-.72-6.21-.76-9.34,0,0,.71.59.71.59-2.92.48-5.87.87-8.84.94h0Z"/>
    <path d="M213.88,107.3c-.88-2.58-1.38-5.23-1.77-7.91,0,0,.56.48.56.48-.7-.02-1.4-.05-2.09-.15-2.54-.36-2.55-.49,0-.85.85-.11,1.72-.14,2.58-.16.46,2.84.81,5.68.73,8.57h0Z"/>
  </g>
  <g>
    <path d="M30.82,240.13h3.65v4.96c0,1.14-.49,1.71-1.47,1.71-.37,0-.71-.09-1.04-.28-.32-.19-.62-.47-.9-.85l-1.34,1.59c.38.5.86.88,1.45,1.14.59.26,1.24.39,1.94.39,1.23,0,2.17-.32,2.81-.95.64-.64.96-1.6.96-2.89v-6.76h-6.06v1.94Z"/>
    <path d="M42.29,238.2l-4.63,10.43h2.47l.93-2.23h4.83l.93,2.23h2.53l-4.68-10.43h-2.38ZM41.82,244.56l1.65-3.97,1.65,3.97h-3.31Z"/>
    <path d="M53.01,241c.3-.3.65-.53,1.06-.69.41-.16.85-.25,1.34-.25.52,0,1,.1,1.44.31.44.21.84.52,1.18.92l1.56-1.43c-.5-.61-1.11-1.06-1.85-1.38-.73-.31-1.55-.47-2.46-.47-.8,0-1.55.13-2.24.39-.69.26-1.29.64-1.8,1.12-.51.49-.91,1.06-1.19,1.71-.28.66-.42,1.38-.42,2.16s.14,1.5.42,2.16c.28.66.68,1.23,1.18,1.71.51.49,1.1.86,1.79,1.12.69.26,1.44.39,2.24.39.91,0,1.74-.16,2.47-.48.73-.32,1.35-.78,1.85-1.38l-1.56-1.43c-.35.41-.74.72-1.18.93-.44.21-.92.32-1.44.32-.49,0-.93-.08-1.34-.25-.41-.16-.76-.39-1.06-.69-.3-.3-.53-.65-.69-1.06s-.25-.86-.25-1.36.08-.95.25-1.35.39-.76.69-1.06Z"/>
    <path d="M75.02,238.2l-4.35,9.8-4.08-5.15,4.31-4.65h-2.68l-4.62,4.87v-4.87h-2.4v10.43h2.4v-2.65l1.38-1.45,3.35,4.09h4.53l.93-2.23h4.83l.93,2.23h2.53l-4.68-10.43h-2.38ZM74.55,244.56l1.65-3.97,1.65,3.97h-3.31Z"/>
    <path d="M90.09,245.26c.68-.29,1.2-.72,1.56-1.28.37-.56.55-1.23.55-2.02s-.18-1.44-.55-2.01c-.37-.57-.89-1-1.56-1.3-.68-.3-1.48-.45-2.41-.45h-4.51v10.43h2.43v-2.92h2.09s.07,0,.1,0l2.03,2.92h2.59l-2.32-3.35s.01,0,.01,0ZM89.22,240.63c.38.31.57.76.57,1.33s-.19,1.02-.57,1.34c-.38.32-.93.48-1.67.48h-1.95v-3.62h1.95c.73,0,1.29.16,1.67.47Z"/>
    <path d="M103.24,239.54c-.52-.49-1.12-.86-1.81-1.12-.69-.26-1.45-.39-2.27-.39s-1.58.13-2.27.4c-.69.27-1.29.65-1.81,1.13-.52.49-.92,1.05-1.2,1.71-.28.65-.42,1.37-.42,2.15s.14,1.49.42,2.14c.28.66.68,1.23,1.2,1.71.52.49,1.12.86,1.82,1.13.69.27,1.45.4,2.28.4s1.57-.13,2.26-.39c.69-.26,1.29-.64,1.81-1.12.52-.49.92-1.06,1.2-1.72s.42-1.38.42-2.15-.14-1.5-.42-2.16c-.28-.66-.68-1.23-1.2-1.71ZM102.18,244.76c-.16.4-.39.75-.69,1.06-.3.3-.64.54-1.04.7-.39.16-.82.25-1.29.25s-.9-.08-1.3-.25c-.4-.16-.74-.4-1.04-.7-.29-.3-.52-.66-.69-1.06-.16-.4-.25-.85-.25-1.35s.08-.95.25-1.35c.16-.4.39-.75.69-1.06.29-.3.64-.54,1.04-.7.4-.16.83-.25,1.3-.25s.9.08,1.29.25c.39.16.74.4,1.04.7.3.3.53.66.69,1.06.16.4.25.85.25,1.35s-.08.95-.25,1.35Z"/>
    <path d="M114.16,238.2l-4.63,10.43h2.47l.93-2.23h4.83l.93,2.23h2.53l-4.68-10.43h-2.38ZM113.69,244.56l1.65-3.97,1.65,3.97h-3.31Z"/>
    <path d="M130.25,243.29c-.1-.04-.21-.06-.31-.1.42-.21.76-.5,1.01-.87.27-.4.4-.88.4-1.42,0-.81-.33-1.47-.99-1.97-.66-.5-1.65-.74-2.96-.74h-5.09v10.43h5.39c1.37,0,2.41-.25,3.11-.75.7-.5,1.06-1.2,1.06-2.09,0-.61-.14-1.12-.43-1.53-.29-.42-.68-.73-1.18-.95ZM127.1,240.01c.59,0,1.04.1,1.35.3.31.2.47.51.47.92s-.16.73-.47.93c-.31.2-.76.31-1.35.31h-2.4v-2.46h2.4ZM128.95,246.49c-.33.21-.8.31-1.41.31h-2.83v-2.58h2.83c.62,0,1.09.1,1.41.31.33.21.49.54.49.98s-.16.76-.49.97Z"/>
    <path d="M140.67,243.96c0,.98-.2,1.7-.61,2.14-.41.44-.98.66-1.71.66s-1.29-.22-1.7-.66c-.41-.44-.61-1.15-.61-2.14v-5.76h-2.43v5.82c0,1.54.42,2.72,1.25,3.54.83.82,1.99,1.24,3.47,1.24s2.62-.41,3.46-1.24c.83-.82,1.25-2.01,1.25-3.54v-5.82h-2.37v5.76Z"/>
    <path d="M153.16,238.85c-.86-.43-1.86-.65-2.99-.65h-4.74v10.43h4.74c1.13,0,2.13-.22,2.99-.65.86-.43,1.54-1.04,2.03-1.82.49-.78.73-1.7.73-2.75s-.24-1.97-.73-2.75c-.49-.78-1.16-1.39-2.03-1.82ZM153.05,245.13c-.28.49-.68.87-1.19,1.13-.51.26-1.11.39-1.81.39h-2.19v-6.49h2.19c.69,0,1.3.13,1.81.39.51.26.91.64,1.19,1.12.28.49.42,1.06.42,1.73s-.14,1.23-.42,1.72Z"/>
    <polygon points="164.88 242.31 160.16 242.31 160.16 238.2 157.74 238.2 157.74 248.62 160.16 248.62 160.16 244.35 164.88 244.35 164.88 248.62 167.3 248.62 167.3 238.2 164.88 238.2 164.88 242.31"/>
    <path d="M173.03,238.2l-4.63,10.43h2.47l.93-2.23h4.83l.93,2.23h2.53l-4.68-10.43h-2.38ZM172.56,244.56l1.65-3.97,1.65,3.97h-3.31Z"/>
    <path d="M189.12,243.29c-.1-.04-.21-.06-.31-.1.42-.21.76-.5,1.01-.87.27-.4.4-.88.4-1.42,0-.81-.33-1.47-.99-1.97-.66-.5-1.65-.74-2.96-.74h-5.09v10.43h5.39c1.37,0,2.41-.25,3.11-.75.7-.5,1.06-1.2,1.06-2.09,0-.61-.14-1.12-.43-1.53-.29-.42-.68-.73-1.18-.95ZM185.97,240.01c.59,0,1.04.1,1.35.3.31.2.47.51.47.92s-.16.73-.47.93c-.31.2-.76.31-1.35.31h-2.4v-2.46h2.4ZM187.82,246.49c-.33.21-.8.31-1.41.31h-2.83v-2.58h2.83c.62,0,1.09.1,1.41.31.33.21.49.54.49.98s-.16.76-.49.97Z"/>
    <rect x="192.57" y="238.2" width="2.43" height="10.43"/>
  </g>
</svg>